<svg width="512" height="243" xmlns="http://www.w3.org/2000/svg" version="1.1">
    <g>
        <path d="m8.75,1.75l470,0l10,2l8,4l5,4l6,9l3,8l0,11l-27,176l-4,10l-9,10l-11,5l-7,1l-272,0l-6,-3l-2,-5l1,-6l8,-9l8,-7l75,-75l2,-1l7,0l5,4l1,6l-3,6l-71,71l245,0l0,-2l-11,-13l-11,-13l-9,-11l-12,-14l-9,-11l-8,-10l0,-8l5,-5l7,0l8,7l9,11l12,14l9,11l12,14l9,11l3,4l2,-7l26,-169l-9,6l-21,16l-19,14l-16,12l-19,14l-14,10l-18,13l-24,16l-14,8l-8,0l-16,-10l-21,-16l-13,-10l-14,-11l-16,-13l-14,-11l-17,-14l-11,-9l-11,-9l-17,-14l-4,-3l-171,-1l-5,-5l0,-7l4,-5l4,-1zm197,18l5,5l13,11l10,8l16,13l14,11l17,14l13,10l18,14l16,12l6,4l5,-1l11,-7l18,-13l18,-13l16,-12l19,-14l19,-14l21,-16l15,-11l0,-1l-270,0z"
              fill="#bac144"/>
        <path d="m83.75,117l77,0l5,5l0,7l-5,5l-3,1l-71,0l-5,-2l-3,-4l0,-7l5,-5z" fill="#bac144"/>
        <path d="m110.75,180l77,0l4,4l1,7l-3,5l-4,2l-73,0l-5,-3l-2,-3l0,-7l5,-5z" fill="#bac144"/>
        <path d="m53.75,52.75l71,0l6,3l2,4l-1,7l-4,4l-77,0l-5,-5l0,-7l4,-5l4,-1z" fill="#bac144"/>
    </g>
</svg>