<svg width="745" height="620" xmlns="http://www.w3.org/2000/svg" version="1.1">
    <g>
        <path fill="#00ADEC"
              d="m700.22,2.03c0.9,-0.01 1.79,-0.02 2.72,-0.03c10.04,0.13 19.15,2.76 26.78,9.47c10.12,10.78 13.2,24.51 13,39c-0.18,3.42 -0.46,6.84 -0.77,10.25c-0.13,1.5 -0.13,1.5 -0.26,3.03c-1.16,12.44 -2.87,24.8 -4.58,37.18c-0.36,2.6 -0.72,5.2 -1.07,7.8c-3.47,25.23 -7.16,50.42 -10.94,75.59c-0.58,3.86 -1.16,7.72 -1.74,11.58c-5.54,37.11 -11.27,74.18 -17.08,111.24c-0.16,1.02 -0.32,2.05 -0.49,3.11c-3.38,21.55 -6.77,43.11 -10.17,64.67c-9.36,59.21 -9.36,59.21 -17.9,118.55c-0.4,2.94 -0.81,5.88 -1.21,8.83c-0.26,1.88 -0.52,3.76 -0.78,5.64c-10.9,79.45 -10.9,79.45 -35.51,99.4c-12.99,9.49 -27.07,10.76 -42.74,8.86c-30.04,-5.05 -56.85,-26.26 -80.72,-43.67c-24.26,-17.62 -49.61,-33.8 -74.65,-50.28c-9.98,-6.57 -19.96,-13.15 -29.9,-19.79c-7.13,-4.77 -14.29,-9.5 -21.46,-14.21c-0.92,-0.6 -1.83,-1.2 -2.77,-1.82c-3.7,-2.43 -7.4,-4.86 -11.11,-7.29c-10.07,-6.59 -20.11,-13.24 -30.02,-20.08c-0.8,-0.54 -1.61,-1.09 -2.43,-1.65c-7.19,-5 -14.03,-10.65 -18.08,-18.57c-0.46,-0.88 -0.92,-1.76 -1.39,-2.66c-4.31,-9.51 -5.02,-20.55 -1.67,-30.52c7.11,-16.5 20.26,-28.48 33.44,-40.19c1.71,-1.54 3.42,-3.09 5.12,-4.63c1.63,-1.46 3.25,-2.91 4.88,-4.37c2.5,-2.26 5.01,-4.51 7.51,-6.76c1.63,-1.47 3.26,-2.93 4.88,-4.39c13.27,-11.87 13.27,-11.87 26.02,-24.29c1.74,-1.71 3.55,-3.29 5.4,-4.87c3.21,-2.77 6.21,-5.68 9.19,-8.69c2.9,-2.93 5.8,-5.77 8.94,-8.44c3.87,-3.31 7.42,-6.89 10.99,-10.51c3.24,-3.27 6.61,-6.32 10.11,-9.31c3.05,-2.71 5.87,-5.65 8.74,-8.55c2.63,-2.59 5.39,-4.98 8.19,-7.38c2.27,-2.02 4.4,-4.15 6.53,-6.31c2.73,-2.77 5.49,-5.42 8.44,-7.94c3.17,-2.72 6.12,-5.59 9.06,-8.56c3.53,-3.58 7.15,-6.94 10.98,-10.2c3.21,-2.86 6.16,-5.98 9.14,-9.08c1.88,-1.72 1.88,-1.72 3.88,-1.72c0,-0.66 0,-1.32 0,-2c1.37,-1.35 1.37,-1.35 3.32,-2.96c4.96,-4.22 9.58,-8.76 14.19,-13.37c1.42,-1.41 2.84,-2.82 4.27,-4.23c13.74,-12.35 13.74,-12.35 20.72,-28.44c-0.15,-3.23 -0.59,-4.13 -2.44,-7c-4.3,-2.81 -7.07,-2.96 -12.06,-2c-8.33,3.39 -15.8,8.28 -23.19,13.34c-2.93,2.01 -5.88,3.99 -8.83,5.98c-0.59,0.4 -1.18,0.8 -1.79,1.21c-5.53,3.72 -11.16,7.29 -16.82,10.84c-7.07,4.46 -13.97,9.07 -20.75,13.95c-6.15,4.4 -12.44,8.57 -18.75,12.74c-7.34,4.86 -14.59,9.81 -21.65,15.08c-4.82,3.59 -9.75,7.02 -14.72,10.41c-3.84,2.62 -7.66,5.25 -11.46,7.92c-17.49,12.27 -35.26,24.06 -53.06,35.87c-7.24,4.8 -14.47,9.61 -21.54,14.66c-0.71,0.5 -1.42,1 -2.15,1.52c-5,3.55 -10,7.12 -14.99,10.7c-95.68,68.39 -95.68,68.39 -139.74,63.39c-8.72,-1.47 -17.15,-3.85 -25.65,-6.24c-10.47,-2.92 -20.96,-5.7 -31.5,-8.34c-0.65,-0.16 -1.31,-0.32 -1.98,-0.49c-5.97,-1.5 -11.94,-2.99 -17.92,-4.47c-81.63,-20.21 -81.63,-20.21 -93.76,-39.01c-2.52,-6.94 -1.6,-12.44 1.25,-19.06c5.26,-9.2 13.4,-15.41 22.64,-20.23c1.11,-0.58 1.11,-0.58 2.25,-1.18c8.52,-4.41 17.3,-8.23 26.11,-12.03c1.8,-0.78 3.6,-1.57 5.4,-2.35c3.71,-1.62 7.43,-3.23 11.14,-4.84c5.13,-2.23 10.26,-4.48 15.38,-6.73c0.81,-0.36 1.61,-0.71 2.45,-1.08c1.63,-0.72 3.27,-1.44 4.9,-2.16c22.1,-9.73 44.26,-19.33 66.41,-28.93c8.06,-3.49 16.12,-6.99 24.18,-10.49c21.93,-9.52 43.86,-19.03 65.81,-28.52c0.71,-0.3 1.43,-0.61 2.16,-0.93c0.7,-0.3 1.4,-0.61 2.12,-0.92c5.56,-2.4 11.12,-4.81 16.67,-7.22c22.27,-9.66 44.56,-19.27 66.86,-28.88c3.56,-1.53 7.11,-3.06 10.67,-4.6c26.96,-11.61 53.96,-23.12 81.15,-34.18c8.26,-3.36 16.48,-6.79 24.7,-10.23c12.48,-5.22 24.98,-10.38 37.5,-15.5c12.73,-5.21 25.44,-10.46 38.12,-15.75c1.51,-0.63 3.01,-1.26 4.51,-1.88c2.2,-0.92 4.39,-1.83 6.59,-2.75c21.69,-9.05 43.43,-17.96 65.28,-26.62c0.75,-0.3 1.49,-0.59 2.26,-0.9c9.67,-3.84 19.35,-7.66 29.03,-11.46c4.77,-1.87 9.52,-3.77 14.27,-5.68c16.05,-6.4 30.56,-11.21 47.94,-11.4z"
        />
    </g>
</svg>