<svg version="1.1" xmlns="http://www.w3.org/2000/svg" width="824" height="830">
    <path d="M0,0 L45,0 L45,1 L59,1 L59,2 L68,2 L68,3 L76,3 L76,4 L83,4 L83,5 L90,5 L90,6 L95,6 L95,7 L101,7 L101,8 L106,8 L106,9 L110,9 L110,10 L115,10 L115,11 L119,11 L119,12 L123,12 L123,13 L127,13 L127,14 L130,14 L130,15 L134,15 L134,16 L137,16 L137,17 L141,17 L141,18 L144,18 L144,19 L147,19 L147,20 L150,20 L150,21 L153,21 L153,22 L156,22 L156,23 L159,23 L159,24 L162,24 L162,25 L165,25 L165,26 L167,26 L167,27 L170,27 L170,28 L172,28 L172,29 L175,29 L175,30 L177,30 L177,31 L180,31 L180,32 L182,32 L182,33 L185,33 L185,34 L187,34 L187,35 L189,35 L189,36 L191,36 L191,37 L194,37 L194,38 L196,38 L196,39 L198,39 L198,40 L200,40 L200,41 L202,41 L202,42 L204,42 L204,43 L206,43 L206,44 L208,44 L208,45 L210,45 L210,46 L212,46 L212,47 L214,47 L214,48 L216,48 L216,49 L218,49 L218,50 L220,50 L220,51 L221,51 L221,52 L223,52 L223,53 L225,53 L225,54 L227,54 L227,55 L228,55 L228,56 L230,56 L230,57 L232,57 L232,58 L233,58 L233,59 L235,59 L235,60 L237,60 L237,61 L238,61 L238,62 L240,62 L240,63 L242,63 L242,64 L243,64 L243,65 L245,65 L245,66 L246,66 L246,67 L248,67 L248,68 L249,68 L249,69 L251,69 L251,70 L252,70 L252,71 L254,71 L254,72 L255,72 L255,73 L257,73 L257,74 L258,74 L258,75 L260,75 L260,76 L261,76 L261,77 L262,77 L262,78 L264,78 L264,79 L265,79 L265,80 L266,80 L266,81 L268,81 L268,82 L269,82 L269,83 L270,83 L270,84 L272,84 L272,85 L273,85 L273,86 L274,86 L274,87 L276,87 L276,88 L277,88 L277,89 L278,89 L278,90 L279,90 L279,91 L281,91 L281,92 L282,92 L282,93 L283,93 L283,94 L284,94 L284,95 L286,95 L286,96 L287,96 L287,97 L288,97 L288,98 L289,98 L289,99 L290,99 L290,100 L291,100 L291,101 L293,101 L293,102 L294,102 L294,103 L295,103 L295,104 L296,104 L296,105 L297,105 L297,106 L298,106 L298,107 L299,107 L299,108 L300,108 L300,109 L301,109 L301,110 L302,110 L302,111 L304,111 L304,112 L305,112 L305,113 L306,113 L306,114 L307,114 L307,115 L308,115 L308,116 L309,116 L309,117 L310,117 L310,118 L311,118 L311,119 L312,119 L312,120 L313,120 L313,121 L314,121 L314,122 L315,122 L315,123 L316,123 L316,124 L317,124 L317,125 L318,125 L318,126 L319,126 L319,127 L320,127 L320,128 L321,128 L321,129 L322,129 L322,130 L323,130 L323,132 L324,132 L324,133 L325,133 L325,134 L326,134 L326,135 L327,135 L327,136 L328,136 L328,137 L329,137 L329,138 L330,138 L330,139 L331,139 L331,140 L332,140 L332,142 L333,142 L333,143 L334,143 L334,144 L335,144 L335,145 L336,145 L336,146 L337,146 L337,147 L338,147 L338,149 L339,149 L339,150 L340,150 L340,151 L341,151 L341,152 L342,152 L342,153 L343,153 L343,155 L344,155 L344,156 L345,156 L345,157 L346,157 L346,158 L347,158 L347,160 L348,160 L348,161 L349,161 L349,162 L350,162 L350,164 L351,164 L351,165 L352,165 L352,166 L353,166 L353,168 L354,168 L354,169 L355,169 L355,170 L356,170 L356,172 L357,172 L357,173 L358,173 L358,175 L359,175 L359,176 L360,176 L360,177 L361,177 L361,179 L362,179 L362,180 L363,180 L363,182 L364,182 L364,183 L365,183 L365,185 L366,185 L366,186 L367,186 L367,188 L368,188 L368,189 L369,189 L369,191 L370,191 L370,192 L371,192 L371,194 L372,194 L372,196 L373,196 L373,197 L374,197 L374,199 L375,199 L375,201 L376,201 L376,202 L377,202 L377,204 L378,204 L378,206 L379,206 L379,207 L380,207 L380,209 L381,209 L381,211 L382,211 L382,213 L383,213 L383,215 L384,215 L384,216 L385,216 L385,218 L386,218 L386,220 L387,220 L387,222 L388,222 L388,224 L389,224 L389,226 L390,226 L390,228 L391,228 L391,230 L392,230 L392,232 L393,232 L393,234 L394,234 L394,236 L395,236 L395,238 L396,238 L396,241 L397,241 L397,243 L398,243 L398,245 L399,245 L399,247 L400,247 L400,250 L401,250 L401,252 L402,252 L402,255 L403,255 L403,257 L404,257 L404,259 L405,259 L405,262 L406,262 L406,265 L407,265 L407,267 L408,267 L408,270 L409,270 L409,273 L410,273 L410,276 L411,276 L411,279 L412,279 L412,282 L413,282 L413,285 L414,285 L414,288 L415,288 L415,291 L416,291 L416,294 L417,294 L417,298 L418,298 L418,301 L419,301 L419,305 L420,305 L420,309 L421,309 L421,313 L422,313 L422,317 L423,317 L423,321 L424,321 L424,326 L425,326 L425,331 L426,331 L426,336 L427,336 L427,342 L428,342 L428,348 L429,348 L429,355 L430,355 L430,363 L431,363 L431,372 L432,372 L432,385 L433,385 L433,437 L432,437 L432,450 L431,450 L431,459 L430,459 L430,467 L429,467 L429,474 L428,474 L428,480 L427,480 L427,486 L426,486 L426,491 L425,491 L425,496 L424,496 L424,500 L423,500 L423,505 L422,505 L422,509 L421,509 L421,513 L420,513 L420,517 L419,517 L419,520 L418,520 L418,524 L417,524 L417,527 L416,527 L416,531 L415,531 L415,534 L414,534 L414,537 L413,537 L413,540 L412,540 L412,543 L411,543 L411,546 L410,546 L410,549 L409,549 L409,552 L408,552 L408,554 L407,554 L407,557 L406,557 L406,560 L405,560 L405,562 L404,562 L404,565 L403,565 L403,567 L402,567 L402,570 L401,570 L401,572 L400,572 L400,574 L399,574 L399,577 L398,577 L398,579 L397,579 L397,581 L396,581 L396,583 L395,583 L395,586 L394,586 L394,588 L393,588 L393,590 L392,590 L392,592 L391,592 L391,594 L390,594 L390,596 L389,596 L389,598 L388,598 L388,600 L387,600 L387,602 L386,602 L386,604 L385,604 L385,606 L384,606 L384,607 L383,607 L383,609 L382,609 L382,611 L381,611 L381,613 L380,613 L380,615 L379,615 L379,616 L378,616 L378,618 L377,618 L377,620 L376,620 L376,621 L375,621 L375,623 L374,623 L374,625 L373,625 L373,626 L372,626 L372,628 L371,628 L371,630 L370,630 L370,631 L369,631 L369,633 L368,633 L368,634 L367,634 L367,636 L366,636 L366,637 L365,637 L365,639 L364,639 L364,640 L363,640 L363,642 L362,642 L362,643 L361,643 L361,645 L360,645 L360,646 L359,646 L359,648 L358,648 L358,649 L357,649 L357,651 L356,651 L356,652 L355,652 L355,653 L354,653 L354,655 L353,655 L353,656 L352,656 L352,657 L351,657 L351,659 L350,659 L350,660 L349,660 L349,661 L348,661 L348,663 L347,663 L347,664 L346,664 L346,665 L345,665 L345,666 L344,666 L344,668 L343,668 L343,669 L342,669 L342,670 L341,670 L341,671 L340,671 L340,673 L339,673 L339,674 L338,674 L338,675 L337,675 L337,676 L336,676 L336,677 L335,677 L335,679 L334,679 L334,680 L333,680 L333,681 L332,681 L332,682 L331,682 L331,683 L330,683 L330,684 L329,684 L329,685 L328,685 L328,686 L327,686 L327,688 L326,688 L326,689 L325,689 L325,690 L324,690 L324,691 L323,691 L323,692 L322,692 L322,693 L321,693 L321,694 L320,694 L320,695 L319,695 L319,696 L318,696 L318,697 L317,697 L317,698 L316,698 L316,699 L315,699 L315,700 L314,700 L314,701 L313,701 L313,702 L312,702 L312,703 L311,703 L311,704 L310,704 L310,705 L309,705 L309,706 L308,706 L308,707 L307,707 L307,708 L306,708 L306,709 L305,709 L305,710 L304,710 L304,711 L303,711 L303,712 L302,712 L302,713 L301,713 L301,714 L300,714 L300,715 L299,715 L299,716 L298,716 L298,717 L296,717 L296,718 L295,718 L295,719 L294,719 L294,720 L293,720 L293,721 L292,721 L292,722 L291,722 L291,723 L290,723 L290,724 L288,724 L288,725 L287,725 L287,726 L286,726 L286,727 L285,727 L285,728 L284,728 L284,729 L282,729 L282,730 L281,730 L281,731 L280,731 L280,732 L279,732 L279,733 L278,733 L278,734 L276,734 L276,735 L275,735 L275,736 L274,736 L274,737 L272,737 L272,738 L271,738 L271,739 L270,739 L270,740 L269,740 L269,741 L267,741 L267,742 L266,742 L266,743 L264,743 L264,744 L263,744 L263,745 L262,745 L262,746 L260,746 L260,747 L259,747 L259,748 L258,748 L258,749 L256,749 L256,750 L255,750 L255,751 L253,751 L253,752 L252,752 L252,753 L250,753 L250,754 L249,754 L249,755 L247,755 L247,756 L246,756 L246,757 L244,757 L244,758 L243,758 L243,759 L241,759 L241,760 L239,760 L239,761 L238,761 L238,762 L236,762 L236,763 L235,763 L235,764 L233,764 L233,765 L231,765 L231,766 L230,766 L230,767 L228,767 L228,768 L226,768 L226,769 L224,769 L224,770 L223,770 L223,771 L221,771 L221,772 L219,772 L219,773 L217,773 L217,774 L215,774 L215,775 L213,775 L213,776 L211,776 L211,777 L209,777 L209,778 L208,778 L208,779 L206,779 L206,780 L204,780 L204,781 L201,781 L201,782 L199,782 L199,783 L197,783 L197,784 L195,784 L195,785 L193,785 L193,786 L191,786 L191,787 L188,787 L188,788 L186,788 L186,789 L184,789 L184,790 L182,790 L182,791 L179,791 L179,792 L177,792 L177,793 L174,793 L174,794 L172,794 L172,795 L169,795 L169,796 L166,796 L166,797 L164,797 L164,798 L161,798 L161,799 L158,799 L158,800 L155,800 L155,801 L152,801 L152,802 L149,802 L149,803 L146,803 L146,804 L143,804 L143,805 L139,805 L139,806 L136,806 L136,807 L132,807 L132,808 L129,808 L129,809 L125,809 L125,810 L121,810 L121,811 L117,811 L117,812 L113,812 L113,813 L108,813 L108,814 L103,814 L103,815 L98,815 L98,816 L92,816 L92,817 L86,817 L86,818 L79,818 L79,819 L72,819 L72,820 L63,820 L63,821 L51,821 L51,822 L26,822 L26,823 L18,823 L18,822 L-7,822 L-7,821 L-18,821 L-18,820 L-27,820 L-27,819 L-35,819 L-35,818 L-42,818 L-42,817 L-48,817 L-48,816 L-53,816 L-53,815 L-59,815 L-59,814 L-63,814 L-63,813 L-68,813 L-68,812 L-72,812 L-72,811 L-76,811 L-76,810 L-80,810 L-80,809 L-84,809 L-84,808 L-88,808 L-88,807 L-91,807 L-91,806 L-95,806 L-95,805 L-98,805 L-98,804 L-101,804 L-101,803 L-104,803 L-104,802 L-108,802 L-108,801 L-111,801 L-111,800 L-113,800 L-113,799 L-116,799 L-116,798 L-119,798 L-119,797 L-122,797 L-122,796 L-124,796 L-124,795 L-127,795 L-127,794 L-130,794 L-130,793 L-132,793 L-132,792 L-135,792 L-135,791 L-137,791 L-137,790 L-139,790 L-139,789 L-142,789 L-142,788 L-144,788 L-144,787 L-146,787 L-146,786 L-148,786 L-148,785 L-151,785 L-151,784 L-153,784 L-153,783 L-155,783 L-155,782 L-159,782 L-159,783 L-163,783 L-163,784 L-168,784 L-168,785 L-172,785 L-172,786 L-177,786 L-177,787 L-181,787 L-181,788 L-186,788 L-186,789 L-190,789 L-190,790 L-194,790 L-194,791 L-199,791 L-199,792 L-203,792 L-203,793 L-208,793 L-208,794 L-212,794 L-212,795 L-217,795 L-217,796 L-221,796 L-221,797 L-226,797 L-226,798 L-230,798 L-230,799 L-235,799 L-235,800 L-239,800 L-239,801 L-244,801 L-244,802 L-248,802 L-248,803 L-253,803 L-253,804 L-257,804 L-257,805 L-262,805 L-262,806 L-266,806 L-266,807 L-271,807 L-271,808 L-275,808 L-275,809 L-280,809 L-280,810 L-284,810 L-284,811 L-289,811 L-289,812 L-293,812 L-293,813 L-298,813 L-298,814 L-302,814 L-302,815 L-307,815 L-307,816 L-311,816 L-311,817 L-316,817 L-316,818 L-320,818 L-320,819 L-325,819 L-325,820 L-329,820 L-329,821 L-334,821 L-334,822 L-338,822 L-338,823 L-343,823 L-343,824 L-347,824 L-347,825 L-352,825 L-352,826 L-356,826 L-356,827 L-361,827 L-361,828 L-365,828 L-365,829 L-370,829 L-370,830 L-373,830 L-373,829 L-374,829 L-374,828 L-375,828 L-375,821 L-374,821 L-374,815 L-373,815 L-373,809 L-372,809 L-372,803 L-371,803 L-371,798 L-370,798 L-370,792 L-369,792 L-369,786 L-368,786 L-368,780 L-367,780 L-367,774 L-366,774 L-366,768 L-365,768 L-365,762 L-364,762 L-364,756 L-363,756 L-363,750 L-362,750 L-362,744 L-361,744 L-361,738 L-360,738 L-360,732 L-359,732 L-359,726 L-358,726 L-358,720 L-357,720 L-357,714 L-356,714 L-356,708 L-355,708 L-355,702 L-354,702 L-354,696 L-353,696 L-353,690 L-352,690 L-352,684 L-351,684 L-351,678 L-350,678 L-350,672 L-349,672 L-349,666 L-348,666 L-348,660 L-347,660 L-347,654 L-346,654 L-346,648 L-345,648 L-345,642 L-344,642 L-344,636 L-343,636 L-343,630 L-342,630 L-342,624 L-341,624 L-341,618 L-340,618 L-340,612 L-339,612 L-339,607 L-340,607 L-340,605 L-341,605 L-341,604 L-342,604 L-342,602 L-343,602 L-343,600 L-344,600 L-344,598 L-345,598 L-345,596 L-346,596 L-346,594 L-347,594 L-347,592 L-348,592 L-348,590 L-349,590 L-349,588 L-350,588 L-350,586 L-351,586 L-351,583 L-352,583 L-352,581 L-353,581 L-353,579 L-354,579 L-354,577 L-355,577 L-355,574 L-356,574 L-356,572 L-357,572 L-357,570 L-358,570 L-358,567 L-359,567 L-359,565 L-360,565 L-360,562 L-361,562 L-361,560 L-362,560 L-362,557 L-363,557 L-363,554 L-364,554 L-364,552 L-365,552 L-365,549 L-366,549 L-366,546 L-367,546 L-367,543 L-368,543 L-368,540 L-369,540 L-369,537 L-370,537 L-370,534 L-371,534 L-371,531 L-372,531 L-372,527 L-373,527 L-373,524 L-374,524 L-374,520 L-375,520 L-375,516 L-376,516 L-376,513 L-377,513 L-377,509 L-378,509 L-378,504 L-379,504 L-379,500 L-380,500 L-380,495 L-381,495 L-381,491 L-382,491 L-382,485 L-383,485 L-383,480 L-384,480 L-384,473 L-385,473 L-385,467 L-386,467 L-386,459 L-387,459 L-387,449 L-388,449 L-388,436 L-389,436 L-389,386 L-388,386 L-388,373 L-387,373 L-387,363 L-386,363 L-386,355 L-385,355 L-385,348 L-384,348 L-384,342 L-383,342 L-383,336 L-382,336 L-382,331 L-381,331 L-381,326 L-380,326 L-380,322 L-379,322 L-379,317 L-378,317 L-378,313 L-377,313 L-377,309 L-376,309 L-376,305 L-375,305 L-375,301 L-374,301 L-374,298 L-373,298 L-373,295 L-372,295 L-372,291 L-371,291 L-371,288 L-370,288 L-370,285 L-369,285 L-369,282 L-368,282 L-368,279 L-367,279 L-367,276 L-366,276 L-366,273 L-365,273 L-365,270 L-364,270 L-364,267 L-363,267 L-363,265 L-362,265 L-362,262 L-361,262 L-361,260 L-360,260 L-360,257 L-359,257 L-359,255 L-358,255 L-358,252 L-357,252 L-357,250 L-356,250 L-356,248 L-355,248 L-355,245 L-354,245 L-354,243 L-353,243 L-353,241 L-352,241 L-352,239 L-351,239 L-351,237 L-350,237 L-350,234 L-349,234 L-349,232 L-348,232 L-348,230 L-347,230 L-347,228 L-346,228 L-346,226 L-345,226 L-345,224 L-344,224 L-344,222 L-343,222 L-343,220 L-342,220 L-342,219 L-341,219 L-341,217 L-340,217 L-340,215 L-339,215 L-339,213 L-338,213 L-338,211 L-337,211 L-337,209 L-336,209 L-336,208 L-335,208 L-335,206 L-334,206 L-334,204 L-333,204 L-333,203 L-332,203 L-332,201 L-331,201 L-331,199 L-330,199 L-330,198 L-329,198 L-329,196 L-328,196 L-328,194 L-327,194 L-327,193 L-326,193 L-326,191 L-325,191 L-325,190 L-324,190 L-324,188 L-323,188 L-323,186 L-322,186 L-322,185 L-321,185 L-321,183 L-320,183 L-320,182 L-319,182 L-319,180 L-318,180 L-318,179 L-317,179 L-317,178 L-316,178 L-316,176 L-315,176 L-315,175 L-314,175 L-314,173 L-313,173 L-313,172 L-312,172 L-312,171 L-311,171 L-311,169 L-310,169 L-310,168 L-309,168 L-309,166 L-308,166 L-308,165 L-307,165 L-307,164 L-306,164 L-306,162 L-305,162 L-305,161 L-304,161 L-304,160 L-303,160 L-303,159 L-302,159 L-302,157 L-301,157 L-301,156 L-300,156 L-300,155 L-299,155 L-299,154 L-298,154 L-298,152 L-297,152 L-297,151 L-296,151 L-296,150 L-295,150 L-295,149 L-294,149 L-294,148 L-293,148 L-293,146 L-292,146 L-292,145 L-291,145 L-291,144 L-290,144 L-290,143 L-289,143 L-289,142 L-288,142 L-288,141 L-287,141 L-287,139 L-286,139 L-286,138 L-285,138 L-285,137 L-284,137 L-284,136 L-283,136 L-283,135 L-282,135 L-282,134 L-281,134 L-281,133 L-280,133 L-280,132 L-279,132 L-279,131 L-278,131 L-278,130 L-277,130 L-277,128 L-276,128 L-276,127 L-275,127 L-275,126 L-274,126 L-274,125 L-273,125 L-273,124 L-272,124 L-272,123 L-271,123 L-271,122 L-270,122 L-270,121 L-269,121 L-269,120 L-268,120 L-268,119 L-267,119 L-267,118 L-266,118 L-266,117 L-265,117 L-265,116 L-264,116 L-264,115 L-263,115 L-263,114 L-262,114 L-262,113 L-261,113 L-261,112 L-260,112 L-260,111 L-258,111 L-258,110 L-257,110 L-257,109 L-256,109 L-256,108 L-255,108 L-255,107 L-254,107 L-254,106 L-253,106 L-253,105 L-252,105 L-252,104 L-251,104 L-251,103 L-250,103 L-250,102 L-249,102 L-249,101 L-247,101 L-247,100 L-246,100 L-246,99 L-245,99 L-245,98 L-244,98 L-244,97 L-243,97 L-243,96 L-242,96 L-242,95 L-240,95 L-240,94 L-239,94 L-239,93 L-238,93 L-238,92 L-237,92 L-237,91 L-235,91 L-235,90 L-234,90 L-234,89 L-233,89 L-233,88 L-232,88 L-232,87 L-230,87 L-230,86 L-229,86 L-229,85 L-228,85 L-228,84 L-227,84 L-227,83 L-225,83 L-225,82 L-224,82 L-224,81 L-223,81 L-223,80 L-221,80 L-221,79 L-220,79 L-220,78 L-218,78 L-218,77 L-217,77 L-217,76 L-216,76 L-216,75 L-214,75 L-214,74 L-213,74 L-213,73 L-211,73 L-211,72 L-210,72 L-210,71 L-209,71 L-209,70 L-207,70 L-207,69 L-206,69 L-206,68 L-204,68 L-204,67 L-203,67 L-203,66 L-201,66 L-201,65 L-199,65 L-199,64 L-198,64 L-198,63 L-196,63 L-196,62 L-195,62 L-195,61 L-193,61 L-193,60 L-191,60 L-191,59 L-190,59 L-190,58 L-188,58 L-188,57 L-186,57 L-186,56 L-185,56 L-185,55 L-183,55 L-183,54 L-181,54 L-181,53 L-180,53 L-180,52 L-178,52 L-178,51 L-176,51 L-176,50 L-174,50 L-174,49 L-172,49 L-172,48 L-170,48 L-170,47 L-168,47 L-168,46 L-167,46 L-167,45 L-165,45 L-165,44 L-163,44 L-163,43 L-161,43 L-161,42 L-159,42 L-159,41 L-157,41 L-157,40 L-154,40 L-154,39 L-152,39 L-152,38 L-150,38 L-150,37 L-148,37 L-148,36 L-146,36 L-146,35 L-144,35 L-144,34 L-141,34 L-141,33 L-139,33 L-139,32 L-136,32 L-136,31 L-134,31 L-134,30 L-132,30 L-132,29 L-129,29 L-129,28 L-126,28 L-126,27 L-124,27 L-124,26 L-121,26 L-121,25 L-118,25 L-118,24 L-116,24 L-116,23 L-113,23 L-113,22 L-110,22 L-110,21 L-107,21 L-107,20 L-104,20 L-104,19 L-101,19 L-101,18 L-97,18 L-97,17 L-94,17 L-94,16 L-91,16 L-91,15 L-87,15 L-87,14 L-83,14 L-83,13 L-79,13 L-79,12 L-75,12 L-75,11 L-71,11 L-71,10 L-67,10 L-67,9 L-62,9 L-62,8 L-57,8 L-57,7 L-52,7 L-52,6 L-46,6 L-46,5 L-40,5 L-40,4 L-32,4 L-32,3 L-24,3 L-24,2 L-14,2 L-14,1 L0,1 Z M7,72 L7,73 L-8,73 L-8,74 L-18,74 L-18,75 L-26,75 L-26,76 L-32,76 L-32,77 L-38,77 L-38,78 L-44,78 L-44,79 L-49,79 L-49,80 L-53,80 L-53,81 L-57,81 L-57,82 L-62,82 L-62,83 L-65,83 L-65,84 L-69,84 L-69,85 L-73,85 L-73,86 L-76,86 L-76,87 L-79,87 L-79,88 L-82,88 L-82,89 L-85,89 L-85,90 L-88,90 L-88,91 L-91,91 L-91,92 L-94,92 L-94,93 L-97,93 L-97,94 L-99,94 L-99,95 L-102,95 L-102,96 L-104,96 L-104,97 L-107,97 L-107,98 L-109,98 L-109,99 L-112,99 L-112,100 L-114,100 L-114,101 L-116,101 L-116,102 L-118,102 L-118,103 L-120,103 L-120,104 L-123,104 L-123,105 L-125,105 L-125,106 L-127,106 L-127,107 L-129,107 L-129,108 L-131,108 L-131,109 L-133,109 L-133,110 L-135,110 L-135,111 L-137,111 L-137,112 L-138,112 L-138,113 L-140,113 L-140,114 L-142,114 L-142,115 L-144,115 L-144,116 L-146,116 L-146,117 L-147,117 L-147,118 L-149,118 L-149,119 L-151,119 L-151,120 L-152,120 L-152,121 L-154,121 L-154,122 L-156,122 L-156,123 L-157,123 L-157,124 L-159,124 L-159,125 L-161,125 L-161,126 L-162,126 L-162,127 L-164,127 L-164,128 L-165,128 L-165,129 L-167,129 L-167,130 L-168,130 L-168,131 L-170,131 L-170,132 L-171,132 L-171,133 L-172,133 L-172,134 L-174,134 L-174,135 L-175,135 L-175,136 L-177,136 L-177,137 L-178,137 L-178,138 L-179,138 L-179,139 L-181,139 L-181,140 L-182,140 L-182,141 L-183,141 L-183,142 L-185,142 L-185,143 L-186,143 L-186,144 L-187,144 L-187,145 L-189,145 L-189,146 L-190,146 L-190,147 L-191,147 L-191,148 L-192,148 L-192,149 L-193,149 L-193,150 L-195,150 L-195,151 L-196,151 L-196,152 L-197,152 L-197,153 L-198,153 L-198,154 L-199,154 L-199,155 L-201,155 L-201,156 L-202,156 L-202,157 L-203,157 L-203,158 L-204,158 L-204,159 L-205,159 L-205,160 L-206,160 L-206,161 L-207,161 L-207,162 L-208,162 L-208,163 L-209,163 L-209,164 L-210,164 L-210,165 L-212,165 L-212,166 L-213,166 L-213,167 L-214,167 L-214,168 L-215,168 L-215,169 L-216,169 L-216,170 L-217,170 L-217,171 L-218,171 L-218,172 L-219,172 L-219,173 L-220,173 L-220,174 L-221,174 L-221,175 L-222,175 L-222,176 L-223,176 L-223,177 L-224,177 L-224,178 L-225,178 L-225,180 L-226,180 L-226,181 L-227,181 L-227,182 L-228,182 L-228,183 L-229,183 L-229,184 L-230,184 L-230,185 L-231,185 L-231,186 L-232,186 L-232,187 L-233,187 L-233,188 L-234,188 L-234,190 L-235,190 L-235,191 L-236,191 L-236,192 L-237,192 L-237,193 L-238,193 L-238,194 L-239,194 L-239,196 L-240,196 L-240,197 L-241,197 L-241,198 L-242,198 L-242,199 L-243,199 L-243,200 L-244,200 L-244,202 L-245,202 L-245,203 L-246,203 L-246,204 L-247,204 L-247,206 L-248,206 L-248,207 L-249,207 L-249,208 L-250,208 L-250,210 L-251,210 L-251,211 L-252,211 L-252,212 L-253,212 L-253,214 L-254,214 L-254,215 L-255,215 L-255,217 L-256,217 L-256,218 L-257,218 L-257,219 L-258,219 L-258,221 L-259,221 L-259,222 L-260,222 L-260,224 L-261,224 L-261,225 L-262,225 L-262,227 L-263,227 L-263,228 L-264,228 L-264,230 L-265,230 L-265,232 L-266,232 L-266,233 L-267,233 L-267,235 L-268,235 L-268,237 L-269,237 L-269,238 L-270,238 L-270,240 L-271,240 L-271,242 L-272,242 L-272,243 L-273,243 L-273,245 L-274,245 L-274,247 L-275,247 L-275,249 L-276,249 L-276,251 L-277,251 L-277,252 L-278,252 L-278,254 L-279,254 L-279,256 L-280,256 L-280,258 L-281,258 L-281,260 L-282,260 L-282,262 L-283,262 L-283,264 L-284,264 L-284,266 L-285,266 L-285,268 L-286,268 L-286,271 L-287,271 L-287,273 L-288,273 L-288,275 L-289,275 L-289,277 L-290,277 L-290,280 L-291,280 L-291,282 L-292,282 L-292,284 L-293,284 L-293,287 L-294,287 L-294,290 L-295,290 L-295,292 L-296,292 L-296,295 L-297,295 L-297,298 L-298,298 L-298,300 L-299,300 L-299,303 L-300,303 L-300,306 L-301,306 L-301,309 L-302,309 L-302,313 L-303,313 L-303,316 L-304,316 L-304,320 L-305,320 L-305,323 L-306,323 L-306,327 L-307,327 L-307,331 L-308,331 L-308,335 L-309,335 L-309,340 L-310,340 L-310,345 L-311,345 L-311,350 L-312,350 L-312,356 L-313,356 L-313,362 L-314,362 L-314,370 L-315,370 L-315,379 L-316,379 L-316,392 L-317,392 L-317,430 L-316,430 L-316,443 L-315,443 L-315,453 L-314,453 L-314,460 L-313,460 L-313,467 L-312,467 L-312,472 L-311,472 L-311,478 L-310,478 L-310,482 L-309,482 L-309,487 L-308,487 L-308,491 L-307,491 L-307,495 L-306,495 L-306,499 L-305,499 L-305,503 L-304,503 L-304,506 L-303,506 L-303,510 L-302,510 L-302,513 L-301,513 L-301,516 L-300,516 L-300,519 L-299,519 L-299,522 L-298,522 L-298,525 L-297,525 L-297,528 L-296,528 L-296,530 L-295,530 L-295,533 L-294,533 L-294,536 L-293,536 L-293,538 L-292,538 L-292,541 L-291,541 L-291,543 L-290,543 L-290,545 L-289,545 L-289,548 L-288,548 L-288,550 L-287,550 L-287,552 L-286,552 L-286,554 L-285,554 L-285,556 L-284,556 L-284,558 L-283,558 L-283,560 L-282,560 L-282,562 L-281,562 L-281,564 L-280,564 L-280,566 L-279,566 L-279,568 L-278,568 L-278,570 L-277,570 L-277,572 L-276,572 L-276,574 L-275,574 L-275,576 L-274,576 L-274,578 L-273,578 L-273,579 L-272,579 L-272,581 L-271,581 L-271,583 L-270,583 L-270,585 L-269,585 L-269,586 L-268,586 L-268,588 L-267,588 L-267,590 L-266,590 L-266,591 L-265,591 L-265,593 L-264,593 L-264,596 L-265,596 L-265,601 L-266,601 L-266,607 L-267,607 L-267,612 L-268,612 L-268,618 L-269,618 L-269,623 L-270,623 L-270,629 L-271,629 L-271,634 L-272,634 L-272,640 L-273,640 L-273,645 L-274,645 L-274,651 L-275,651 L-275,656 L-276,656 L-276,662 L-277,662 L-277,667 L-278,667 L-278,673 L-279,673 L-279,678 L-280,678 L-280,684 L-281,684 L-281,689 L-282,689 L-282,695 L-283,695 L-283,700 L-284,700 L-284,706 L-285,706 L-285,711 L-286,711 L-286,717 L-287,717 L-287,722 L-288,722 L-288,728 L-289,728 L-289,733 L-290,733 L-290,739 L-291,739 L-291,741 L-290,741 L-290,740 L-286,740 L-286,739 L-281,739 L-281,738 L-277,738 L-277,737 L-273,737 L-273,736 L-269,736 L-269,735 L-264,735 L-264,734 L-260,734 L-260,733 L-256,733 L-256,732 L-252,732 L-252,731 L-248,731 L-248,730 L-243,730 L-243,729 L-239,729 L-239,728 L-235,728 L-235,727 L-231,727 L-231,726 L-226,726 L-226,725 L-222,725 L-222,724 L-218,724 L-218,723 L-214,723 L-214,722 L-209,722 L-209,721 L-205,721 L-205,720 L-201,720 L-201,719 L-197,719 L-197,718 L-192,718 L-192,717 L-188,717 L-188,716 L-184,716 L-184,715 L-180,715 L-180,714 L-175,714 L-175,713 L-171,713 L-171,712 L-167,712 L-167,711 L-163,711 L-163,710 L-159,710 L-159,709 L-154,709 L-154,708 L-150,708 L-150,707 L-146,707 L-146,706 L-145,706 L-145,707 L-143,707 L-143,708 L-141,708 L-141,709 L-139,709 L-139,710 L-137,710 L-137,711 L-136,711 L-136,712 L-134,712 L-134,713 L-132,713 L-132,714 L-130,714 L-130,715 L-128,715 L-128,716 L-126,716 L-126,717 L-124,717 L-124,718 L-121,718 L-121,719 L-119,719 L-119,720 L-117,720 L-117,721 L-115,721 L-115,722 L-113,722 L-113,723 L-110,723 L-110,724 L-108,724 L-108,725 L-105,725 L-105,726 L-103,726 L-103,727 L-100,727 L-100,728 L-98,728 L-98,729 L-95,729 L-95,730 L-92,730 L-92,731 L-90,731 L-90,732 L-87,732 L-87,733 L-84,733 L-84,734 L-80,734 L-80,735 L-77,735 L-77,736 L-74,736 L-74,737 L-70,737 L-70,738 L-67,738 L-67,739 L-63,739 L-63,740 L-59,740 L-59,741 L-55,741 L-55,742 L-50,742 L-50,743 L-46,743 L-46,744 L-40,744 L-40,745 L-35,745 L-35,746 L-28,746 L-28,747 L-21,747 L-21,748 L-13,748 L-13,749 L-1,749 L-1,750 L45,750 L45,749 L57,749 L57,748 L65,748 L65,747 L73,747 L73,746 L79,746 L79,745 L85,745 L85,744 L90,744 L90,743 L95,743 L95,742 L99,742 L99,741 L103,741 L103,740 L107,740 L107,739 L111,739 L111,738 L115,738 L115,737 L118,737 L118,736 L121,736 L121,735 L125,735 L125,734 L128,734 L128,733 L131,733 L131,732 L134,732 L134,731 L136,731 L136,730 L139,730 L139,729 L142,729 L142,728 L144,728 L144,727 L147,727 L147,726 L149,726 L149,725 L152,725 L152,724 L154,724 L154,723 L157,723 L157,722 L159,722 L159,721 L161,721 L161,720 L163,720 L163,719 L165,719 L165,718 L168,718 L168,717 L170,717 L170,716 L172,716 L172,715 L174,715 L174,714 L176,714 L176,713 L178,713 L178,712 L179,712 L179,711 L181,711 L181,710 L183,710 L183,709 L185,709 L185,708 L187,708 L187,707 L189,707 L189,706 L190,706 L190,705 L192,705 L192,704 L194,704 L194,703 L196,703 L196,702 L197,702 L197,701 L199,701 L199,700 L200,700 L200,699 L202,699 L202,698 L204,698 L204,697 L205,697 L205,696 L207,696 L207,695 L208,695 L208,694 L210,694 L210,693 L211,693 L211,692 L213,692 L213,691 L214,691 L214,690 L216,690 L216,689 L217,689 L217,688 L219,688 L219,687 L220,687 L220,686 L221,686 L221,685 L223,685 L223,684 L224,684 L224,683 L225,683 L225,682 L227,682 L227,681 L228,681 L228,680 L229,680 L229,679 L231,679 L231,678 L232,678 L232,677 L233,677 L233,676 L234,676 L234,675 L236,675 L236,674 L237,674 L237,673 L238,673 L238,672 L239,672 L239,671 L240,671 L240,670 L242,670 L242,669 L243,669 L243,668 L244,668 L244,667 L245,667 L245,666 L246,666 L246,665 L247,665 L247,664 L248,664 L248,663 L250,663 L250,662 L251,662 L251,661 L252,661 L252,660 L253,660 L253,659 L254,659 L254,658 L255,658 L255,657 L256,657 L256,656 L257,656 L257,655 L258,655 L258,654 L259,654 L259,653 L260,653 L260,652 L261,652 L261,651 L262,651 L262,650 L263,650 L263,649 L264,649 L264,648 L265,648 L265,647 L266,647 L266,646 L267,646 L267,645 L268,645 L268,644 L269,644 L269,643 L270,643 L270,642 L271,642 L271,641 L272,641 L272,640 L273,640 L273,639 L274,639 L274,637 L275,637 L275,636 L276,636 L276,635 L277,635 L277,634 L278,634 L278,633 L279,633 L279,632 L280,632 L280,631 L281,631 L281,629 L282,629 L282,628 L283,628 L283,627 L284,627 L284,626 L285,626 L285,625 L286,625 L286,623 L287,623 L287,622 L288,622 L288,621 L289,621 L289,619 L290,619 L290,618 L291,618 L291,617 L292,617 L292,616 L293,616 L293,614 L294,614 L294,613 L295,613 L295,612 L296,612 L296,610 L297,610 L297,609 L298,609 L298,607 L299,607 L299,606 L300,606 L300,605 L301,605 L301,603 L302,603 L302,602 L303,602 L303,600 L304,600 L304,599 L305,599 L305,597 L306,597 L306,596 L307,596 L307,594 L308,594 L308,592 L309,592 L309,591 L310,591 L310,589 L311,589 L311,588 L312,588 L312,586 L313,586 L313,584 L314,584 L314,583 L315,583 L315,581 L316,581 L316,579 L317,579 L317,577 L318,577 L318,576 L319,576 L319,574 L320,574 L320,572 L321,572 L321,570 L322,570 L322,568 L323,568 L323,566 L324,566 L324,564 L325,564 L325,562 L326,562 L326,560 L327,560 L327,558 L328,558 L328,556 L329,556 L329,554 L330,554 L330,552 L331,552 L331,550 L332,550 L332,548 L333,548 L333,545 L334,545 L334,543 L335,543 L335,541 L336,541 L336,538 L337,538 L337,536 L338,536 L338,533 L339,533 L339,530 L340,530 L340,528 L341,528 L341,525 L342,525 L342,522 L343,522 L343,519 L344,519 L344,516 L345,516 L345,513 L346,513 L346,510 L347,510 L347,507 L348,507 L348,503 L349,503 L349,499 L350,499 L350,496 L351,496 L351,492 L352,492 L352,487 L353,487 L353,483 L354,483 L354,478 L355,478 L355,473 L356,473 L356,467 L357,467 L357,461 L358,461 L358,453 L359,453 L359,444 L360,444 L360,431 L361,431 L361,391 L360,391 L360,378 L359,378 L359,369 L358,369 L358,362 L357,362 L357,355 L356,355 L356,350 L355,350 L355,344 L354,344 L354,339 L353,339 L353,335 L352,335 L352,331 L351,331 L351,327 L350,327 L350,323 L349,323 L349,319 L348,319 L348,316 L347,316 L347,312 L346,312 L346,309 L345,309 L345,306 L344,306 L344,303 L343,303 L343,300 L342,300 L342,297 L341,297 L341,295 L340,295 L340,292 L339,292 L339,289 L338,289 L338,287 L337,287 L337,284 L336,284 L336,282 L335,282 L335,279 L334,279 L334,277 L333,277 L333,275 L332,275 L332,273 L331,273 L331,270 L330,270 L330,268 L329,268 L329,266 L328,266 L328,264 L327,264 L327,262 L326,262 L326,260 L325,260 L325,258 L324,258 L324,256 L323,256 L323,254 L322,254 L322,252 L321,252 L321,250 L320,250 L320,248 L319,248 L319,247 L318,247 L318,245 L317,245 L317,243 L316,243 L316,241 L315,241 L315,240 L314,240 L314,238 L313,238 L313,236 L312,236 L312,235 L311,235 L311,233 L310,233 L310,231 L309,231 L309,230 L308,230 L308,228 L307,228 L307,227 L306,227 L306,225 L305,225 L305,224 L304,224 L304,222 L303,222 L303,221 L302,221 L302,219 L301,219 L301,218 L300,218 L300,216 L299,216 L299,215 L298,215 L298,214 L297,214 L297,212 L296,212 L296,211 L295,211 L295,209 L294,209 L294,208 L293,208 L293,207 L292,207 L292,205 L291,205 L291,204 L290,204 L290,203 L289,203 L289,202 L288,202 L288,200 L287,200 L287,199 L286,199 L286,198 L285,198 L285,197 L284,197 L284,195 L283,195 L283,194 L282,194 L282,193 L281,193 L281,192 L280,192 L280,191 L279,191 L279,189 L278,189 L278,188 L277,188 L277,187 L276,187 L276,186 L275,186 L275,185 L274,185 L274,184 L273,184 L273,183 L272,183 L272,182 L271,182 L271,181 L270,181 L270,179 L269,179 L269,178 L268,178 L268,177 L267,177 L267,176 L266,176 L266,175 L265,175 L265,174 L264,174 L264,173 L263,173 L263,172 L262,172 L262,171 L261,171 L261,170 L260,170 L260,169 L259,169 L259,168 L258,168 L258,167 L257,167 L257,166 L256,166 L256,165 L255,165 L255,164 L253,164 L253,163 L252,163 L252,162 L251,162 L251,161 L250,161 L250,160 L249,160 L249,159 L248,159 L248,158 L247,158 L247,157 L246,157 L246,156 L245,156 L245,155 L243,155 L243,154 L242,154 L242,153 L241,153 L241,152 L240,152 L240,151 L239,151 L239,150 L238,150 L238,149 L236,149 L236,148 L235,148 L235,147 L234,147 L234,146 L233,146 L233,145 L231,145 L231,144 L230,144 L230,143 L229,143 L229,142 L227,142 L227,141 L226,141 L226,140 L225,140 L225,139 L223,139 L223,138 L222,138 L222,137 L221,137 L221,136 L219,136 L219,135 L218,135 L218,134 L216,134 L216,133 L215,133 L215,132 L214,132 L214,131 L212,131 L212,130 L211,130 L211,129 L209,129 L209,128 L208,128 L208,127 L206,127 L206,126 L205,126 L205,125 L203,125 L203,124 L201,124 L201,123 L200,123 L200,122 L198,122 L198,121 L196,121 L196,120 L195,120 L195,119 L193,119 L193,118 L191,118 L191,117 L190,117 L190,116 L188,116 L188,115 L186,115 L186,114 L184,114 L184,113 L182,113 L182,112 L181,112 L181,111 L179,111 L179,110 L177,110 L177,109 L175,109 L175,108 L173,108 L173,107 L171,107 L171,106 L169,106 L169,105 L167,105 L167,104 L164,104 L164,103 L162,103 L162,102 L160,102 L160,101 L158,101 L158,100 L156,100 L156,99 L153,99 L153,98 L151,98 L151,97 L148,97 L148,96 L146,96 L146,95 L143,95 L143,94 L141,94 L141,93 L138,93 L138,92 L135,92 L135,91 L132,91 L132,90 L129,90 L129,89 L126,89 L126,88 L123,88 L123,87 L120,87 L120,86 L117,86 L117,85 L113,85 L113,84 L109,84 L109,83 L106,83 L106,82 L102,82 L102,81 L97,81 L97,80 L93,80 L93,79 L88,79 L88,78 L82,78 L82,77 L77,77 L77,76 L70,76 L70,75 L62,75 L62,74 L53,74 L53,73 L38,73 L38,72 Z "
          fill="#00a85a" transform="translate(389,0)"/>
    <path d="M0,0 L13,0 L13,1 L29,1 L29,2 L33,2 L33,3 L35,3 L35,4 L37,4 L37,5 L38,5 L38,6 L39,6 L39,7 L40,7 L40,8 L41,8 L41,9 L42,9 L42,10 L43,10 L43,11 L44,11 L44,13 L45,13 L45,15 L46,15 L46,17 L47,17 L47,19 L48,19 L48,21 L49,21 L49,24 L50,24 L50,26 L51,26 L51,29 L52,29 L52,32 L53,32 L53,34 L54,34 L54,37 L55,37 L55,39 L56,39 L56,42 L57,42 L57,45 L58,45 L58,47 L59,47 L59,50 L60,50 L60,53 L61,53 L61,55 L62,55 L62,58 L63,58 L63,61 L64,61 L64,63 L65,63 L65,66 L66,66 L66,69 L67,69 L67,72 L68,72 L68,74 L69,74 L69,77 L70,77 L70,80 L71,80 L71,82 L72,82 L72,85 L73,85 L73,88 L74,88 L74,90 L75,90 L75,93 L76,93 L76,95 L77,95 L77,98 L78,98 L78,100 L79,100 L79,104 L80,104 L80,111 L79,111 L79,114 L78,114 L78,116 L77,116 L77,118 L76,118 L76,120 L75,120 L75,122 L74,122 L74,124 L73,124 L73,125 L72,125 L72,127 L71,127 L71,128 L70,128 L70,130 L69,130 L69,131 L68,131 L68,132 L67,132 L67,133 L66,133 L66,134 L65,134 L65,135 L64,135 L64,137 L63,137 L63,138 L62,138 L62,139 L61,139 L61,140 L60,140 L60,141 L59,141 L59,142 L58,142 L58,143 L57,143 L57,144 L56,144 L56,146 L55,146 L55,147 L54,147 L54,148 L53,148 L53,149 L52,149 L52,150 L51,150 L51,151 L50,151 L50,152 L49,152 L49,153 L48,153 L48,154 L47,154 L47,155 L46,155 L46,156 L45,156 L45,158 L44,158 L44,161 L43,161 L43,165 L44,165 L44,169 L45,169 L45,171 L46,171 L46,173 L47,173 L47,174 L48,174 L48,176 L49,176 L49,178 L50,178 L50,180 L51,180 L51,181 L52,181 L52,183 L53,183 L53,185 L54,185 L54,186 L55,186 L55,188 L56,188 L56,189 L57,189 L57,191 L58,191 L58,193 L59,193 L59,194 L60,194 L60,196 L61,196 L61,197 L62,197 L62,199 L63,199 L63,200 L64,200 L64,201 L65,201 L65,203 L66,203 L66,204 L67,204 L67,206 L68,206 L68,207 L69,207 L69,208 L70,208 L70,210 L71,210 L71,211 L72,211 L72,212 L73,212 L73,214 L74,214 L74,215 L75,215 L75,216 L76,216 L76,218 L77,218 L77,219 L78,219 L78,220 L79,220 L79,221 L80,221 L80,222 L81,222 L81,224 L82,224 L82,225 L83,225 L83,226 L84,226 L84,227 L85,227 L85,228 L86,228 L86,229 L87,229 L87,231 L88,231 L88,232 L89,232 L89,233 L90,233 L90,234 L91,234 L91,235 L92,235 L92,236 L93,236 L93,237 L94,237 L94,238 L95,238 L95,239 L96,239 L96,240 L97,240 L97,241 L98,241 L98,242 L99,242 L99,243 L100,243 L100,244 L101,244 L101,245 L102,245 L102,246 L103,246 L103,247 L104,247 L104,248 L105,248 L105,249 L106,249 L106,250 L108,250 L108,251 L109,251 L109,252 L110,252 L110,253 L111,253 L111,254 L112,254 L112,255 L113,255 L113,256 L114,256 L114,257 L116,257 L116,258 L117,258 L117,259 L118,259 L118,260 L119,260 L119,261 L121,261 L121,262 L122,262 L122,263 L123,263 L123,264 L124,264 L124,265 L126,265 L126,266 L127,266 L127,267 L128,267 L128,268 L130,268 L130,269 L131,269 L131,270 L132,270 L132,271 L134,271 L134,272 L135,272 L135,273 L137,273 L137,274 L138,274 L138,275 L140,275 L140,276 L141,276 L141,277 L143,277 L143,278 L144,278 L144,279 L146,279 L146,280 L148,280 L148,281 L149,281 L149,282 L151,282 L151,283 L153,283 L153,284 L154,284 L154,285 L156,285 L156,286 L158,286 L158,287 L160,287 L160,288 L162,288 L162,289 L164,289 L164,290 L166,290 L166,291 L168,291 L168,292 L170,292 L170,293 L172,293 L172,294 L174,294 L174,295 L176,295 L176,296 L178,296 L178,297 L181,297 L181,298 L183,298 L183,299 L185,299 L185,300 L189,300 L189,301 L197,301 L197,300 L199,300 L199,299 L201,299 L201,298 L202,298 L202,297 L203,297 L203,296 L204,296 L204,295 L205,295 L205,294 L206,294 L206,293 L207,293 L207,292 L208,292 L208,291 L209,291 L209,290 L210,290 L210,289 L211,289 L211,288 L212,288 L212,287 L213,287 L213,285 L214,285 L214,284 L215,284 L215,283 L216,283 L216,282 L217,282 L217,281 L218,281 L218,280 L219,280 L219,278 L220,278 L220,277 L221,277 L221,276 L222,276 L222,275 L223,275 L223,274 L224,274 L224,273 L225,273 L225,271 L226,271 L226,270 L227,270 L227,269 L228,269 L228,268 L229,268 L229,267 L230,267 L230,265 L231,265 L231,264 L232,264 L232,263 L233,263 L233,262 L234,262 L234,261 L235,261 L235,259 L236,259 L236,258 L237,258 L237,257 L238,257 L238,256 L239,256 L239,254 L240,254 L240,253 L242,253 L242,252 L243,252 L243,251 L244,251 L244,250 L247,250 L247,249 L254,249 L254,250 L258,250 L258,251 L260,251 L260,252 L263,252 L263,253 L265,253 L265,254 L267,254 L267,255 L269,255 L269,256 L271,256 L271,257 L273,257 L273,258 L275,258 L275,259 L277,259 L277,260 L279,260 L279,261 L281,261 L281,262 L283,262 L283,263 L285,263 L285,264 L287,264 L287,265 L289,265 L289,266 L291,266 L291,267 L293,267 L293,268 L295,268 L295,269 L297,269 L297,270 L299,270 L299,271 L300,271 L300,272 L302,272 L302,273 L304,273 L304,274 L306,274 L306,275 L308,275 L308,276 L310,276 L310,277 L312,277 L312,278 L314,278 L314,279 L316,279 L316,280 L318,280 L318,281 L319,281 L319,282 L321,282 L321,283 L323,283 L323,284 L325,284 L325,285 L327,285 L327,286 L329,286 L329,287 L331,287 L331,288 L333,288 L333,289 L334,289 L334,290 L336,290 L336,291 L338,291 L338,292 L340,292 L340,293 L342,293 L342,294 L344,294 L344,295 L345,295 L345,296 L347,296 L347,297 L348,297 L348,298 L349,298 L349,299 L350,299 L350,300 L351,300 L351,304 L352,304 L352,316 L351,316 L351,323 L350,323 L350,328 L349,328 L349,333 L348,333 L348,336 L347,336 L347,340 L346,340 L346,343 L345,343 L345,346 L344,346 L344,349 L343,349 L343,351 L342,351 L342,353 L341,353 L341,355 L340,355 L340,357 L339,357 L339,358 L338,358 L338,359 L337,359 L337,361 L336,361 L336,362 L335,362 L335,363 L334,363 L334,364 L333,364 L333,365 L332,365 L332,366 L331,366 L331,367 L330,367 L330,368 L329,368 L329,369 L328,369 L328,370 L327,370 L327,371 L326,371 L326,372 L324,372 L324,373 L323,373 L323,374 L322,374 L322,375 L321,375 L321,376 L319,376 L319,377 L318,377 L318,378 L316,378 L316,379 L315,379 L315,380 L313,380 L313,381 L312,381 L312,382 L310,382 L310,383 L308,383 L308,384 L306,384 L306,385 L305,385 L305,386 L303,386 L303,387 L301,387 L301,388 L299,388 L299,389 L297,389 L297,390 L294,390 L294,391 L292,391 L292,392 L289,392 L289,393 L286,393 L286,394 L283,394 L283,395 L280,395 L280,396 L275,396 L275,397 L265,397 L265,398 L243,398 L243,397 L235,397 L235,396 L230,396 L230,395 L225,395 L225,394 L221,394 L221,393 L217,393 L217,392 L214,392 L214,391 L210,391 L210,390 L207,390 L207,389 L204,389 L204,388 L201,388 L201,387 L198,387 L198,386 L195,386 L195,385 L192,385 L192,384 L189,384 L189,383 L186,383 L186,382 L184,382 L184,381 L181,381 L181,380 L178,380 L178,379 L176,379 L176,378 L173,378 L173,377 L171,377 L171,376 L168,376 L168,375 L166,375 L166,374 L163,374 L163,373 L161,373 L161,372 L158,372 L158,371 L156,371 L156,370 L154,370 L154,369 L151,369 L151,368 L149,368 L149,367 L147,367 L147,366 L144,366 L144,365 L142,365 L142,364 L140,364 L140,363 L138,363 L138,362 L136,362 L136,361 L134,361 L134,360 L132,360 L132,359 L130,359 L130,358 L128,358 L128,357 L126,357 L126,356 L125,356 L125,355 L123,355 L123,354 L121,354 L121,353 L119,353 L119,352 L118,352 L118,351 L116,351 L116,350 L114,350 L114,349 L113,349 L113,348 L111,348 L111,347 L109,347 L109,346 L108,346 L108,345 L106,345 L106,344 L105,344 L105,343 L103,343 L103,342 L102,342 L102,341 L100,341 L100,340 L99,340 L99,339 L98,339 L98,338 L96,338 L96,337 L95,337 L95,336 L93,336 L93,335 L92,335 L92,334 L91,334 L91,333 L89,333 L89,332 L88,332 L88,331 L87,331 L87,330 L85,330 L85,329 L84,329 L84,328 L83,328 L83,327 L82,327 L82,326 L80,326 L80,325 L79,325 L79,324 L78,324 L78,323 L77,323 L77,322 L75,322 L75,321 L74,321 L74,320 L73,320 L73,319 L72,319 L72,318 L71,318 L71,317 L70,317 L70,316 L68,316 L68,315 L67,315 L67,314 L66,314 L66,313 L65,313 L65,312 L64,312 L64,311 L63,311 L63,310 L62,310 L62,309 L61,309 L61,308 L59,308 L59,307 L58,307 L58,306 L57,306 L57,305 L56,305 L56,304 L55,304 L55,303 L54,303 L54,302 L53,302 L53,301 L52,301 L52,300 L51,300 L51,299 L50,299 L50,298 L49,298 L49,297 L48,297 L48,296 L47,296 L47,295 L46,295 L46,294 L45,294 L45,293 L44,293 L44,292 L43,292 L43,291 L42,291 L42,290 L41,290 L41,289 L40,289 L40,288 L39,288 L39,287 L38,287 L38,286 L37,286 L37,284 L36,284 L36,283 L35,283 L35,282 L34,282 L34,281 L33,281 L33,280 L32,280 L32,279 L31,279 L31,278 L30,278 L30,277 L29,277 L29,276 L28,276 L28,274 L27,274 L27,273 L26,273 L26,272 L25,272 L25,271 L24,271 L24,270 L23,270 L23,269 L22,269 L22,268 L21,268 L21,266 L20,266 L20,265 L19,265 L19,264 L18,264 L18,263 L17,263 L17,261 L16,261 L16,260 L15,260 L15,259 L14,259 L14,258 L13,258 L13,257 L12,257 L12,255 L11,255 L11,254 L10,254 L10,253 L9,253 L9,251 L8,251 L8,250 L7,250 L7,249 L6,249 L6,248 L5,248 L5,246 L4,246 L4,245 L3,245 L3,244 L2,244 L2,242 L1,242 L1,241 L0,241 L0,239 L-1,239 L-1,238 L-2,238 L-2,237 L-3,237 L-3,235 L-4,235 L-4,234 L-5,234 L-5,232 L-6,232 L-6,231 L-7,231 L-7,230 L-8,230 L-8,228 L-9,228 L-9,227 L-10,227 L-10,225 L-11,225 L-11,224 L-12,224 L-12,222 L-13,222 L-13,221 L-14,221 L-14,219 L-15,219 L-15,218 L-16,218 L-16,216 L-17,216 L-17,215 L-18,215 L-18,213 L-19,213 L-19,211 L-20,211 L-20,210 L-21,210 L-21,208 L-22,208 L-22,207 L-23,207 L-23,205 L-24,205 L-24,204 L-25,204 L-25,202 L-26,202 L-26,201 L-27,201 L-27,199 L-28,199 L-28,198 L-29,198 L-29,196 L-30,196 L-30,195 L-31,195 L-31,193 L-32,193 L-32,191 L-33,191 L-33,190 L-34,190 L-34,188 L-35,188 L-35,186 L-36,186 L-36,185 L-37,185 L-37,183 L-38,183 L-38,181 L-39,181 L-39,179 L-40,179 L-40,177 L-41,177 L-41,175 L-42,175 L-42,173 L-43,173 L-43,171 L-44,171 L-44,169 L-45,169 L-45,167 L-46,167 L-46,165 L-47,165 L-47,163 L-48,163 L-48,160 L-49,160 L-49,158 L-50,158 L-50,155 L-51,155 L-51,153 L-52,153 L-52,150 L-53,150 L-53,147 L-54,147 L-54,144 L-55,144 L-55,141 L-56,141 L-56,138 L-57,138 L-57,134 L-58,134 L-58,130 L-59,130 L-59,125 L-60,125 L-60,120 L-61,120 L-61,112 L-62,112 L-62,90 L-61,90 L-61,82 L-60,82 L-60,76 L-59,76 L-59,72 L-58,72 L-58,68 L-57,68 L-57,64 L-56,64 L-56,61 L-55,61 L-55,58 L-54,58 L-54,56 L-53,56 L-53,53 L-52,53 L-52,51 L-51,51 L-51,49 L-50,49 L-50,47 L-49,47 L-49,45 L-48,45 L-48,43 L-47,43 L-47,41 L-46,41 L-46,40 L-45,40 L-45,38 L-44,38 L-44,37 L-43,37 L-43,35 L-42,35 L-42,34 L-41,34 L-41,32 L-40,32 L-40,31 L-39,31 L-39,30 L-38,30 L-38,28 L-37,28 L-37,27 L-36,27 L-36,26 L-35,26 L-35,25 L-34,25 L-34,24 L-33,24 L-33,22 L-32,22 L-32,21 L-31,21 L-31,20 L-30,20 L-30,19 L-29,19 L-29,18 L-28,18 L-28,17 L-27,17 L-27,16 L-26,16 L-26,15 L-25,15 L-25,14 L-24,14 L-24,13 L-23,13 L-23,12 L-22,12 L-22,11 L-21,11 L-21,10 L-20,10 L-20,9 L-19,9 L-19,8 L-17,8 L-17,7 L-16,7 L-16,6 L-14,6 L-14,5 L-12,5 L-12,4 L-10,4 L-10,3 L-8,3 L-8,2 L-5,2 L-5,1 L0,1 Z "
          fill="#00a85a" transform="translate(264,212)"/>
</svg>
